Release Info:
==============
original name .... : Bad Boys Duology HDTVRip H264 AAC - R2L [ChattChitto RG]
ripper.............: DIMAPIKS
encoder............: Recalled2Life (R2L)
video codec........: H264/.MP4                   
video bitrate......: 2300 Kbps                           
audio codec........: AAC-LC
language...........: English
subtitles..........: English
sample.............: Yes
2ch Audio..........: 2ch Audio for XBox Viewers  
Compatibility .....: XBox 360 | PS3 | WD Live     


@@@@@@@@@@@@@@@@@@@@@@@@@@@@@@@@@@@@@@@@@@@@@@@@@@@@@@@@@@@@@@@@@@@@@@@@@@@@@@@@@


General                          : ChattChitto RG - Movies

Complete name                    : Bad Boys 1995 HDTVRip.mp4
Format                           : MPEG-4
Format profile                   : Base Media
Codec ID                         : isom
File size                        : 2.21 GiB
Duration                         : 1h 58mn
Overall bit rate                 : 2 659 Kbps
Encoded date                     : UTC 2010-05-15 13:32:55

Video
==========
ID                               : 1
Format                           : AVC
Format/Info                      : Advanced Video Codec
Format profile                   : High@L3.1
Format settings, CABAC           : Yes
Format settings, ReFrames        : 3 frames
Codec ID                         : avc1
Codec ID/Info                    : Advanced Video Coding
Duration                         : 1h 58mn
Bit rate mode                    : Variable
Bit rate                         : 2 300 Kbps
Maximum bit rate                 : 21.6 Mbps
Width                            : 1 280 pixels
Height                           : 720 pixels
Display aspect ratio             : 16:9
Frame rate mode                  : Constant
Frame rate                       : 23.976 fps
Resolution                       : 8 bits
Colorimetry                      : 4:2:0
Scan type                        : Progressive
Bits/(Pixel*Frame)               : 0.104
Stream size                      : 1.91 GiB (86%)
Writing library                  : x264 core 76 r1271 496d79d
Encoded date                     : UTC 2010-05-14 02:45:51

Audio
==========
ID                               : 2
Format                           : AAC
Format/Info                      : Advanced Audio Codec
Format version                   : Version 4
Format profile                   : LC
Format settings, SBR             : No
Codec ID                         : 40
Duration                         : 1h 58mn
Bit rate mode                    : Variable
Bit rate                         : 352.8 Kbps
Maximum bit rate                 : 431 Kbps
Channel(s)                       : 6 channels
Channel positions                : Front: L C R, Side: L R, LFE
Sampling rate                    : 48.0 KHz
Stream size                      : 302 MiB (13%)
Encoded date                     : UTC 2010-05-15 13:35:08

Subtitles                        : English



----------------------------------------------------
IMDB Link: http://www.imdb.com/title/tt0112442/
----------------------------------------------------



Screen-Shots Comparison:
=========================  
http://comparescreenshots.slicx.com/comparison/56673



Screen Shots:
============== 
http://img405.imageshack.us/img405/3236/25024245.jpg 
http://img163.imageshack.us/img163/2558/29872605.jpg 
http://img69.imageshack.us/img69/7966/85980897.jpg 
http://img340.imageshack.us/img340/5493/59374620.jpg 
http://img156.imageshack.us/img156/4057/18831589.jpg



Plot:
======
Two South Miami cops, Mike Lowrey, a wild bachelor and Marcus Burnett, a family man, must find $100 million in stolen heroin before their department is shut down. In a race against time, detectives Burnett and Lowrey track a master thief into the Miami underworld, dodging bullets and bad guys along the way. A sexy witness can identify the thief, but when she calls the station, she'll only talk to Lowry--and he's not around. Acting quickly, Burnett impersonates his partner to take the call, but there's only one catch: He has to pretend to be Lowrey for the duration of the case or risk losing her trust. Now, between shoot-outs and car chases, married man Burnett has to stick close to their only eye witness while playboy Lowrey goes home to his partner's wife and kids, maintaining the charade until the case is solved.




Release Info:
==============
original name .... : Bad Boys 1995 HDTVRip.mp4
ripper.............: DIMAPIKS
encoder............: Recalled2Life (R2L)
video codec........: H264/.MP4                   
video bitrate......: 2300 Kbps                           
audio codec........: AAC-LC
aspect ratio.......: 16:9 | 1:78.1                              
resolution.........: 1280 x 720                             
genre..............: Action | Comedy | Crime | Drama         
runtime............: 1h 58mn
language...........: English
rating.............: R                             
subtitles..........: English
sample.............: Yes [8.33 MB]
2ch Audio..........: 2ch Audio for XBox Viewers  
Compatibility .....: XBox 360 | PS3 | WD Live   



Source:
========
Bad Boys HDTV 1080p x264-DIMAPIKS [7.90 GB]


Notes:
=======
ChattChitto RG Encourages Burning this Film with ConvertXtoDVD.
XBox 360 | PS3 | WD Live - Compatible 
Enhanced for your viewing pleasure ;)


++++++++++++++++++++++++++++++++++++++++++++++++++++++++++++++++++++++++++++++++


General                          : ChattChitto RG - Movies

Complete name                    : Bad Boys II 2003 HDTVRip.mp4
Format                           : MPEG-4
Format profile                   : Base Media
Codec ID                         : isom
File size                        : 2.72 GiB
Duration                         : 2h 26mn
Overall bit rate                 : 2 657 Kbps
Encoded date                     : UTC 2010-05-15 13:37:50

Video
==========
ID                               : 1
Format                           : AVC
Format/Info                      : Advanced Video Codec
Format profile                   : High@L3.1
Format settings, CABAC           : Yes
Format settings, ReFrames        : 3 frames
Codec ID                         : avc1
Codec ID/Info                    : Advanced Video Coding
Duration                         : 2h 26mn
Bit rate mode                    : Variable
Bit rate                         : 2 300 Kbps
Maximum bit rate                 : 18.5 Mbps
Width                            : 1 280 pixels
Height                           : 704 pixels
Display aspect ratio             : 16:9
Frame rate mode                  : Constant
Frame rate                       : 23.976 fps
Resolution                       : 8 bits
Colorimetry                      : 4:2:0
Scan type                        : Progressive
Bits/(Pixel*Frame)               : 0.106
Stream size                      : 2.36 GiB (86%)
Writing library                  : x264 core 76 r1271 496d79d
Encoded date                     : UTC 2010-05-15 07:26:58

Audio
==========
ID                               : 2
Format                           : AAC
Format/Info                      : Advanced Audio Codec
Format version                   : Version 4
Format profile                   : LC
Format settings, SBR             : No
Codec ID                         : 40
Duration                         : 2h 26mn
Bit rate mode                    : Variable
Bit rate                         : 352.8 Kbps
Maximum bit rate                 : 449 Kbps
Channel(s)                       : 6 channels
Channel positions                : Front: L C R, Side: L R, LFE
Sampling rate                    : 48.0 KHz
Stream size                      : 373 MiB (13%)
Encoded date                     : UTC 2010-05-15 13:39:19

Subtitles                        : English




----------------------------------------------------
IMDB Link: http://www.imdb.com/title/tt0172156/
----------------------------------------------------



Screen-Shots Comparison:
=========================  
http://comparescreenshots.slicx.com/comparison/56688



Screen Shots:
============== 
http://img96.imageshack.us/img96/5024/92993477.jpg 
http://img263.imageshack.us/img263/4291/90915758.jpg 
http://img39.imageshack.us/img39/5206/78785126.jpg 
http://img101.imageshack.us/img101/6899/47314729.jpg 
http://img257.imageshack.us/img257/1655/46082364.jpg



Plot:
======
Narcotics detectives Mike Lowrey (Will Smith) and Marcus Burnett (Martin Lawrence) have been assigned to a high-tech task force investigating the flow of designer ecstasy into Miami. Their inquiries inadvertently lead them to a major conspiracy involving a vicious kingpin (Molla), whose ambitions to take over the city's drug trade have ignited a bloody turf war. But Mike and Marcus's friendship and working relationship is threatened when Mike begins to develop feelings for Marcus' sister Syd (Gabrielle Union). Unless they can separate the personal from the professional, the bad boys are in danger of blowing the case and endangering Syd's life in the process.




Release Info:
==============
original name .... : Bad Boys II 2003 HDTVRip.mp4
ripper.............: DIMAPIKS
encoder............: Recalled2Life (R2L)
video codec........: H264/.MP4                   
video bitrate......: 2300 Kbps
audio codec........: AAC-LC
aspect ratio.......: 16:9 | 1.85:1
resolution.........: 1280 x 704
genre..............: Action | Comedy | Crime | Thriller         
runtime............: 2h 26mn
language...........: English
rating.............: R                             
subtitles..........: English
sample.............: Yes [9.41 MB]
2ch Audio..........: 2ch Audio for XBox Viewers  
Compatibility .....: XBox 360 | PS3 | WD Live  



Source:
========
Bad Boys II HDTV 1080p x264-DIMAPIKS [7.97 GB]


Notes:
=======
ChattChitto RG Encourages Burning this Film with ConvertXtoDVD.
XBox 360 | PS3 | WD Live - Compatible 
Enhanced for your viewing pleasure ;)